<?xml version="1.0" encoding="UTF-8"?>
<svg width="24px" height="24px" viewBox="0 0 24 24" version="1.1" xmlns="http://www.w3.org/2000/svg" xmlns:xlink="http://www.w3.org/1999/xlink">
    <!-- Generator: Sketch 63.1 (92452) - https://sketch.com -->
    <title>www-hero</title>
    <desc>Created with Sketch.</desc>
    <g id="www-hero" stroke="none" stroke-width="1" fill="none" fill-rule="evenodd">
        <g id="Group" transform="translate(3.000000, 3.000000)" stroke="#A5C3ED" stroke-width="2">
            <line x1="16.0053763" y1="16.0053763" x2="18" y2="18" id="Lens-Handle" stroke-linecap="round"></line>
            <circle id="Oval" cx="9" cy="9" r="9"></circle>
        </g>
        <path d="M3.06636569,18.4193703 L0.719400042,19.5 L0,17.9442295 L2.17138449,16.9447741 C2.43157046,17.4609251 2.73121864,17.9537783 3.06636569,18.4193703 Z M6.80798623,7.30492197 L17,12 L6.80889713,16.6960845 C6.41926647,16.2656482 6.08242384,15.7865312 5.80858294,15.2689473 L12.9036769,12.0008567 L5.80858294,8.73105265 C6.08221042,8.21387219 6.41874146,7.73509868 6.80798623,7.30492197 Z M0.719400042,4.5 L3.06565203,5.5816213 C2.730577,6.04722195 2.43099907,6.54007744 2.17088082,7.05622516 L0,6.05577046 L0.719400042,4.5 Z" id="Combined-Shape" fill="#A5C3ED" fill-rule="nonzero"></path>
        <path d="M7.65390378,6.5122548 L19,12 L7.6529,17.486949 C6.6428943,16.6856823 5.85924736,15.6114465 5.41345629,14.3757388 L10.3274595,12 L5.41381864,9.62325701 C5.85981966,8.38756224 6.64368714,7.31338907 7.65390378,6.5122548 Z" id="Combined-Shape" fill="#A5C3ED" fill-rule="nonzero"></path>
    </g>
</svg>